<svg xmlns="http://www.w3.org/2000/svg" width="221" height="223" version="1.1">
  <g fill="none">
    <mask id="a" width="221" height="223" x="0" y="0" mask-type="alpha" maskUnits="userSpaceOnUse">
      <rect width="221" height="223" fill="#fff" rx="45"/>
    </mask>
    <g mask="url(#a)">
      <rect width="221" height="223" fill="#018BF3" rx="50"/>
      <path stroke="#fff" stroke-opacity=".35" d="M191.5-3v229M32.5 0v223m15-223v225m129-225v223M1 32.5h221M1 46.5h221M1 191.5h221"/>
      <path stroke="#fff" stroke-dasharray="6 6" stroke-opacity=".35" stroke-width="1.5" d="M112 .5v223M1.5 112.5h221m.033-111.4465L1.5327 224.053M1.5351 0L222.535 225"/>
      <rect width="192" height="192" x="1" y="1" stroke="#fff" stroke-dasharray="6 6" stroke-opacity=".35" stroke-width="2" rx="49" transform="translate(15 15)"/>
      <mask id="b" width="225" height="225" x="-1" y="-1" mask-type="alpha" maskUnits="userSpaceOnUse">
        <path stroke="#000" stroke-width=".5" d="M221.72 217.242c-.977 1.306-1.745 2.124-3.942 4.454M5.1452 1.6026c-1.642.7819-2.2246 2.6112-4.0336 3.3635l4.0336-3.3635zm-.4275-.3809C3.893 2.3323 2.902 3.5807 1.5743 5.519l3.1434-4.2972zM8.984 2.5004C4.8311 4.905 3.6408 7.8362 2.409 10.3703l6.575-7.87zM8.4063.956c-2.674 2.7815-4.7604 6.728-7.1756 8.4324L8.4063.956zm3.463.4162C10.2221 6.1406 5.5186 7.4946.8866 14.5569L11.8693 1.3722zm.5877.7663C10.0852 4.5983 8.1886 6.8596 1.498 13.6064L12.457 2.1385zM16.7776.423C11.3612 6.7101 9.7959 11.1757.1536 19.0718L16.7776.4229zm.0184 1.6431c-3.0633 2.9825-6.9975 8.0105-15.235 16.7003L16.796 2.066zm4.8196.0174C16.7299 6.5828 13.1411 11.5257.7359 24.2766L21.6156 2.0834zm-.6152-1.012c-7.6051 9.7912-16.0369 18.264-19.4461 21.845l19.4461-21.845zm3.3111 1.6658C17.9376 9.1296 11.7024 17.3087 1.3098 29.1751L24.3115 2.7372zm-.4332-.8358C15.0082 11.4134 7.3143 21.613.9287 28.0116L23.8783 1.9014zm5.449-1.4647c-6.263 8.9147-14.3831 14.6878-27.7987 33.1936L29.3273.4367zm-.5292 1.5905C23.153 8.6763 15.7732 15.2531 1.959 32.0285L28.798 2.0272zm2.9228-.7325C24.8782 8.7151 19.6957 16.629 2.4286 37.2536L31.721 1.2947zm.672-.0685C21.1732 13.9746 11.7364 24.6261 1.7393 37.3742l30.6536-36.148zm4.1007 1.5631C27.2693 12.5613 16.4867 24.51.8888 41.8156L36.4936 2.7893zm-.04-1.227C25.3702 13.573 13.8058 27.7568 1.8792 41.4074L36.4535 1.5622zM40.91 2.6273C23.9849 19.6852 10.3058 36.5888.0113 46.861L40.91 2.6274zm-1.1916-.771C29.7281 13.045 18.5705 25.4163.8744 45.7996l38.844-43.9433zm4.9276-.6779C26.1157 20.7206 10.74 40.9169 1.7438 51.2546L44.646 1.1785zm-.5267.65C34.2472 12.501 26.2746 22.5723.9473 49.5963l43.172-47.768zM48.419.5682C32.3273 18.3332 20.0741 33.2866 1.625 55.049L48.419.5683zm-1.1294.428c-17.384 22.4086-35.682 42.7686-45.3006 54.162L47.2896.9964zm3.1236 1.1156C33.3614 22.406 15.2381 42.2442 2.4931 58.4431L50.4132 2.1119zm1.4824-.6577C41.5733 13.5644 29.3522 26.42 1.5899 59.3118L51.8956 1.4542zM55.9198.935C33.1808 23.8518 12.2933 49.6098 1.7054 63.3175L55.9198.935zm-1.0467.901C38.0473 22.2992 18.7053 44.0436 1.7081 63.2165L54.8732 1.836zm5.6067.5834C37.4605 25.808 16.8757 50.0582.9326 69.3205l59.5472-66.901zm-1.1875-.5343C40.4426 22.631 21.6636 45.2285 1.8783 67.3816l57.414-65.4965zm3.4439-.5017C51.5771 16.854 39.9044 31.247 2.5094 72.1553L62.7362 1.3834zm-.0307.4573c-23.3251 27.329-47.1583 55.3446-60.615 70.6365l60.615-70.6365zm3.2181-.6498C43.5307 28.956 23.5353 54.303.0746 77.4824l65.849-76.2915zm.8092-.1859C42.3931 30.203 17.2752 57.908 1.1768 76.5314L66.7328 1.005zm3.1136.1922C52.6845 23.522 31.8498 48.036 1.3124 80.544l68.534-79.3468zm1.2511-.1178C51.1915 24.372 31.4721 46.1891.9965 81.6166l70.101-80.5372zm5.1839-.9212C50.7881 30.0949 24.4722 60.7449 2.5507 87.353L76.2814.1582zm-.779 1.5782C56.5465 21.1783 39.0438 41.0474 1.8538 85.437L75.5024 1.7364zm4.4051.5363C60.727 18.9067 44.8648 38.0741 1.6981 91.1979L79.9075 2.2726zM78.512 1.188C54.2641 27.8459 30.686 55.0119 2.1282 90.9922L78.512 1.188zm5.5748-.3955C63.2519 22.352 45.1255 41.7339 1.1625 95.3094L84.0868.7924zm-1.6728.997C63.5658 23.312 44.9991 44.315 1.1897 94.2364L82.414 1.7896zM86.5657.4463C55.3916 37.715 23.9065 73.3202 2.1654 100.323L86.5657.4462zm.3591 1.0153C58.8178 32.7748 30.6324 65.355.7206 98.9722L86.9248 1.4615zm4.2998-.253C71.5828 21.6313 52.3042 43.3338 1.9491 103.385L91.2246 1.2084zm-.7802.4141C69.4819 27.8767 47.5262 52.3994 1.3594 103.487L90.4443 1.6226zM95.2201.495c-31.4239 36.1217-59.26 72.316-93.3022 106.967L95.2201.495zm-1.3398.3637C74.5997 24.9588 55.3613 47.1639.9671 108.35L93.8803.8587zm4.1685.648C68.3704 34.9268 37.8099 72.2536.6091 113.841L98.0488 1.5067zm.7077.0795C62.1744 42.1777 27.0507 82.4645 1.5067 113.184L98.7565 1.5862zm2.5075.6968C70.3387 35.8732 38.8393 71.2076.8046 116.842L101.264 2.283zm.433-1.0359C66.1688 42.5523 28.7005 84.8106 1.5959 117.154L101.697 1.2471zm4.007-.3856C70.8225 39.6854 37.4029 79.692.2836 120.96L105.704.8615zm-.392.3412C79.2378 30.27 52.8708 61.161 1.626 122.164L105.312 1.2027zm4.75.4333C82.6764 33.0642 55.4302 62.2195 2.3213 125.154L110.062 1.636zm-.181.3933C84.5142 32.2863 58.4316 61.4022 1.5286 126.158L109.881 2.0293zm4.226-1.6908C79.4606 40.9121 47.2281 78.6491 1.6747 129.648L114.107.3385zm.2.634C76.0987 43.0307 40.3719 85.8989.983 131.043L114.307.9725zM116.76 0C82.139 43.4112 44.5709 85.0097 2.0309 136.231L116.76 0zm1.572 1.3509C74.6668 50.1983 31.5541 99.9584.9047 134.814L118.332 1.3509zm2.219-.7006C86.8751 42.0408 49.9342 81.922 1.6928 140.221L120.551.6503zm1.075.4698C84.8259 45.2414 46.8079 88.1157 1.42 139.452L121.626 1.12zm3.218-.1638C81.5103 51.4197 36.383 103.144 2.6809 144.089L124.844.9563zm.319.818C83.7961 50.096 42.9791 99.5681.7235 144.708L125.163 1.7743zm5.601-1.7437C85.6264 53.7813 41.4144 101.972 2.6108 148.249L130.764.0306zm-.89.8322C78.9166 58.5812 30.3241 116.192.8043 149.063L129.874.8628zm2.966.053C87.8963 53.0055 45.9683 102.568 1.4116 154.482L132.84.9158zm.206.7244C95.7403 46.9945 57.724 89.6902 1.0072 152.555L133.046 1.6402zm3.015.168C89.5346 56.5946 41.7521 112.49.7673 157.202L136.061 1.8083zm1.196-.4797C88.3682 57.11 39.5789 112.879 1.7558 157.402L137.257 1.3285zm4.699 1.1986C100.75 47.7637 61.0596 92.9182 0 162.758L141.956 2.5271zm-1.665-1.155C97.9672 47.906 56.8737 95.5354 1.2885 161.561L140.291 1.372zm3.466.8998C108.07 43.0191 71.9642 85.2557 1.3275 166.247L143.757 2.272zm.691-.9243C112.376 36.8529 82.5838 72.2437 2.017 166.397L144.448 1.3476zm4.051-.8222C104.842 50.1673 62.0453 99.1824 1.7948 172.205L148.499.5254zm.935.8876C116.984 36.8024 86.0307 73.5629 1.6442 170.202L149.434 1.413zm1.965.705C95.3721 69.0743 39.0614 135.602.9396 174.069L151.399 2.118zm.589-.0868C95.6547 64.8313 39.2142 128.71 2.0824 175.585L151.988 2.0312zM156.26.4783C106.805 63.4614 53.1326 121.794.3672 178.898L156.26.4783zm.448 1.5794C113.33 49.2193 73.232 97.1858 1.275 180.256L156.708 2.0577zm4.449.5894C98.1055 72.1808 35.3421 143.493 1.2926 183.638L161.157 2.6472zm-1.359-.4815C124.536 42.9395 88.1886 84.8584 1.2538 185.045L159.798 2.1656zm4.759-.9912C130.818 43.6003 97.8821 82.4419.6205 187.78L164.557 1.1744zm-.816-.3759C108.131 65.606 51.7057 131.673 1.5741 188.734L163.741.7985zm5.765-.5887C112.356 65.028 55.8756 127.556 2.788 193.509L169.506.2098zm-1.002.6838C122.467 52.945 78.4856 103.438 1.2892 192.771L168.504.8936zm2.16-.7073C116.042 68.0777 60.0743 131.224.454 199.178L170.664.1863zm1.94 1.2828C104.753 75.619 38.6632 152.527 1.356 197.434L172.604 1.4691zm2.214-.7532C133.209 49.8061 93.332 98.6716.2248 203.172L174.818.716zm1.539.1544C128.236 54.0117 81.6287 106.821.882 202.035L176.357.8703zm2.27.4104C120.356 69.4968 59.9455 137.858.2655 205.261L178.627 1.2807zm.534-.0946C141.787 43.9404 103.157 89.0529 2.0596 206.574L179.161 1.186zm5.446.1674C130.014 60.0247 76.4634 122.789 1.281 212.265L184.607 1.3535zM183.603.727C120.876 71.724 61.5836 141.447 1.8543 211.371L183.603.727zm5.369 1.4886C120.751 77.974 53.3415 154.231.5386 216.259L188.972 2.2155zM187.614.9103C136.041 57.9153 87.6019 115.514 1.173 215.17L187.614.9103zm4.203.9077C120.805 87.864 47.0868 172.706.3338 220.269L191.817 1.818zm-.875-.686C148.691 53.3122 106.441 102.15 1.0755 220.161L190.942 1.132zm5.656 1.6904C141.898 61.7915 86.4536 124.061 3.6673 222.685L196.598 2.8224zm-1.726-2.087C128.228 81.0888 57.9255 161.444 3.7928 221.052L194.872.7353zm5.642 1.215C147.303 61.1033 94.1178 121.226 7.6557 222.151L200.514 1.9504zm-1.842-.031C122.008 87.086 46.8804 173.785 7.8484 222.073L198.672 1.9195zM202.63.1627C147.999 62.8553 94.2328 124.915 11.246 221.517L202.63.1626zm.669.5842C159.361 52.356 114.86 104.605 12.1903 221.663L203.299.7468zm4.781 1.0444C129.451 87.223 53.9624 173.197 15.2833 221.396L208.08 1.7912zm-.65-.6435C129.373 89.5162 54.704 177.124 15.2308 221.065L207.43 1.1477zm3.131.5464C171.18 47.7745 133.175 92.9951 18.8931 220.727L210.561 1.6941zm.478-.3244C170.147 50.3476 127.462 99.9305 20.2541 221.091L211.039 1.3697zm4.218 1.4085C154.523 74.1512 92.398 144.006 24.1758 222.802L215.257 2.7782zm.261-.7256C154.935 70.2582 93.2662 141.475 23.2427 221.659L215.518 2.0526zm3.283-1.848C145.899 84.496 71.2039 166.797 26.2219 220.762L218.801.2046zm.344 1.0185C152.234 81.489 84.134 159.826 27.2866 222.237L219.145 1.2231zm2.363.891C171.82 61.1171 124.823 116.802 31.6238 220.705L221.508 2.114zm.591.4378c-44.178 51.3906-90.552 103.74-190.6287 218.338L222.099 2.552zm-1.256 5.5214C184.748 50.8158 145.42 95.5972 35.133 221.961L220.843 8.0733zm.049-1.3454c-49.829 55.8394-98.917 111.19-185.0376 214.248L220.892 6.728zm.792 5.7421c-46.579 53.723-93.397 106.724-184.013 208.46L221.684 12.47zm-.095-.82C162.508 79.279 105.751 144.933 38.5269 221.814L221.589 11.65zm-.43 4.7275C152.341 93.0424 85.4516 171.868 43.7205 221.557L221.159 16.3775zm.37.0893C165.409 82.8786 108.003 147.392 42.7942 220.992L221.529 16.4668zm1.217 3.0566C179.837 70.3828 137.817 117.877 48.1462 222.384L222.746 19.5234zm-1.087 1.6609C168.479 81.9847 116.45 141.479 47.2117 222.065L221.659 21.1843zm.834 4.4849C163.082 89.7946 105.431 158.839 50.4727 220.503L222.493 25.6692zm-.752-1.2897C166.378 88.6145 112.577 149.904 51.1576 221.77L221.741 24.3795zm-.897 6.0386C158.486 100.458 97.6602 170.31 54.7737 222.809L220.844 30.4181zm.16-.7567C167.006 93.0968 112.671 156.358 54.3428 221.315L221.004 29.6614zm.827 5.6738C185.997 74.7368 148.112 117.671 58.5923 221.576L221.831 35.3352zm.258-1.1364C185.125 78.3082 149.11 120.415 57.7974 222.287L222.089 34.1988zm.029 5.5844C187.473 81.8687 150.984 124.441 61.9406 222.545L222.118 39.7832zm-.367-1.2575c-42.567 48.595-82.942 95.6952-159.5558 182.4362L221.751 38.5257zm-.409 4.7702c-38.131 41.433-74.639 85.087-155.6358 177.917L221.342 43.2959zm-.416-.2343C174.332 99.575 126.512 153.229 66.2579 221.213L220.926 43.0616zm.496 2.9265C181.766 92.3254 145.02 139.239 70.3918 220.233L221.422 45.9881zm.006 1.2336C170.221 105.835 119.771 165.251 69.6865 222.029L221.428 47.2217zm-.204 5.8006C180.13 97.935 140.234 143.418 72.8657 220.63L221.224 53.0223zm-.013-1.738C175.162 106.189 128.408 158.931 73.7137 221.366L221.211 51.2843zm-1.065 6.0974C162.779 121.888 105.281 189.082 77.5646 222.407L220.146 57.3817zm1.398-1.7195C180.015 105.639 138.143 153.131 78.4392 221.187L221.544 55.6622zm.698 5.8097c-53.488 59.024-106.251 119.519-141.5147 159.936L222.242 61.4719zm-.037-.8447C180.589 107.367 141.413 152.561 82.3597 222.088L222.205 60.6272zm-.535 5.778C193.074 98.8095 161.178 132.705 86.3809 221.692L221.67 66.4052zm-.733-1.7179C171.538 121.004 122.087 179.195 85.6677 221.772L220.937 64.6873zm-.458 4.1586c-28.603 35.5591-58.28 69.4311-131.0643 154.0501L220.479 68.8459zm1.091 1.5275C191.335 103.326 160.136 138.303 89.81 221.232L221.57 70.3734zm1.287 3.132C171.184 130.06 123.617 186.359 93.2579 222.067L222.857 73.5054zm-1.916.3462C180.18 122.914 137.895 171.443 94.1628 221.111L220.941 73.8516zm-.058 6.0061C190.609 112.575 160.632 146.25 96.5521 220.323L220.883 79.8577zm1.111-.7556C192.317 111.411 163.002 145.958 97.0784 222.238L221.994 79.1021zm-.159 5.2483c-30.307 34.2356-59.689 68.7106-121.44 136.6176l121.44-136.6176zm-.304-1.2907C177.545 131.495 136.026 179.24 100.622 221.402L221.531 83.0597zm1.147 4.5629c-35.931 40.8654-71.324 83.7084-117.955 134.8304L222.678 87.6226zm-1.381.1399c-35.821 40.2755-71.75 80.6285-116.551 133.5465L221.297 87.7625zm1.343 4.6683C199.231 118.498 175.806 145.89 108.849 222.797L222.64 92.4308zm-.782.1738c-29.3 34.0394-59.033 68.0854-112.314 128.9304L221.858 92.6046zm-.781 2.9008C200.206 123.593 176.488 150.87 112.712 220.311L221.077 95.5054zm.944 1.401C188.51 133.365 156.033 171.367 113.644 222.177L222.021 96.9064zm-1.32 3.9896c-21.496 26.227-44.735 50.315-103.759 120.607l103.759-120.607zm.159.316c-36.294 43.304-74.207 87.043-104.079 120.516L220.86 101.212zm1.336 3.511c-31.018 38.669-63.916 72.974-102.054 117.822l102.054-117.822zm-.647.303c-33.01 39.236-67.028 77.033-100.928 117.048l100.928-117.048zm.07 5.809c-33.182 39.122-65.563 77.953-96.643 112.032l96.643-112.032zm.028-1.344c-37.208 43.098-73.953 85.6-97.373 111.767l97.373-111.767zm.892 5.784c-37.489 39.989-73.755 81.213-93.698 104.988l93.698-104.988zm-1.147-1.323c-27.799 33.412-55.969 65.369-92.194 107.621l92.194-107.621zm.038 5.031c-32.17 37.581-63.329 73.551-87.795 102.444l87.795-102.444zm.816-.228c-28.587 32.126-55.602 64.117-89.835 102.173l89.835-102.173zm.553 4.836c-22.941 26.524-46.986 53.049-85.697 97.988l85.697-97.988zm-1.788-.656c-26.272 31.798-53.159 62.554-84.955 98.171l84.955-98.171zm-.463 4.657c-21.108 26.372-44.632 54.649-81.149 95.365l81.149-95.365zm.716-.221c-31.023 37.132-61.523 73.523-81.223 94.858l81.223-94.858zm-.994 4.288c-20.105 24.324-40.892 47.368-75.611 88.54l75.611-88.54zm1.003 1.347c-16.203 18.017-32.014 35.725-76.898 87.911l76.898-87.911zm1.504 3.383c-19.456 20.446-38.449 42.5-74.955 85.694l74.955-85.694zm-.974.166c-18.448 18.553-34.738 38.871-74.466 84.444l74.466-84.444zm-1.208 3.827c-16.544 22.078-36.713 45.089-69.947 80.737l69.947-80.737zm1.573.409c-24.461 27.66-47.848 55.141-70.578 80.445l70.578-80.445zm.298 5.24c-23.861 26.456-49.045 53.544-67.504 76.269l67.504-76.269zm-.525-.749c-21.774 25.89-44.443 51.704-65.879 76.262l65.879-76.262zm-.216 6.177c-21.6 22.386-38.479 44.044-62.129 70.117l62.129-70.117zm.507-.427c-15.049 15.872-28.574 32.113-63.096 70.444l63.096-70.444zm-.438 3.871c-17.17 20.101-36.37 41.235-57.062 67.141l57.062-67.141zm.394-.464c-14.417 17.64-28.704 33.9-58.54 66.714l58.54-66.714zm-.832 6.104c-16.301 18.414-31.693 37.074-54.837 62.457l54.837-62.457zm-.143-1.676c-14.181 16.923-27.035 32.457-54.212 63.31l54.212-63.31zm-.681 5.418c-19.031 21.843-37.067 44.607-48.796 56.209l48.796-56.209zm1.416-1.095c-12.8 14.256-24.077 28.005-50.467 58.195l50.467-58.195zm-1.212 5.251c-18.697 21.841-35.66 41.448-45.315 54.218l45.315-54.218zm1.345-.813c-16.888 20.061-33.825 38.805-47.297 54.294l47.297-54.294zm-.599 5.495c-8.775 9.528-17.736 20.255-42.497 49.562l42.497-49.562zm-.486.023c-13.273 16.23-26.112 31.874-41.909 48.677l41.909-48.677zm1.077 2.862c-8.018 10.815-18.172 21.192-37.853 45.883l37.853-45.883zm-.64 1.101c-8.473 9.449-17.243 19.398-38.346 44.616l38.346-44.616zm-.564 5.741c-12.531 13.796-25.313 29.17-33.9 38.216l33.9-38.216zm.748-1.334c-11.258 12.868-22.014 25.93-35.189 40.039l35.189-40.039zm-1.124 5.173c-9.588 10.634-16.773 20.672-28.923 35.13l28.923-35.13zm1.677-.934c-11.172 11.943-20.901 23.849-30.716 36.171l30.716-36.171zm-.896 3.492c-7.728 9.734-13.528 16.148-25.429 31.627l25.429-31.627zm.101 1.128c-5.834 7.59-12.177 15.197-27.113 31.492l27.113-31.492zm1.625 4.313c-8.165 8.319-16.171 15.402-23.782 28.104L223 194.688zm-1.287-.049c-7.265 9.315-14.555 16.475-23.443 26.241l23.443-26.241zm-1.561 3.518c-3.151 6.95-5.477 9.743-18.059 23.515l18.059-23.515zm1.967 1.98c-6.839 5.874-12.819 13.168-19.968 21.052l19.968-21.052zm-1.022 4.456c-3.883 5.194-9.879 13.692-16.215 17.511l16.215-17.511zm.382-.693c-3.834 4.366-7.926 9.028-14.845 17.974l14.845-17.974zm.303 3.144c-2.829 3.683-6.458 6.975-12.154 15.636l12.154-15.636zm.106 1.549c-4.683 4.724-8.639 10.02-11.563 12.347l11.563-12.347zm-.556 4.848c-1.308 1.814-4.393 4.749-6.693 7.29l6.693-7.29zm.496-.698c-3.28 2.899-5.67 6.313-8.029 8.394l8.029-8.394zm-.57 4.244c-.485 1.97-1.764 3.335-3.3 5.047l3.3-5.047z"/>
      </mask>
      <g fill="#fff" mask="url(#b)">
        <path d="M144.335 32H79.6649C53.3823 32 32 53.3823 32 79.6649v64.6701C32 170.618 53.3823 192 79.6649 192h64.6701C170.618 192 192 170.618 192 144.335V79.6649C192 53.3823 170.617 32 144.335 32zm31.569 112.335c0 17.435-14.134 31.569-31.569 31.569H79.6649c-17.4349 0-31.5689-14.134-31.5689-31.569V79.6649c0-17.4352 14.134-31.5689 31.5689-31.5689h64.6701c17.435 0 31.569 14.1337 31.569 31.5689v64.6701z"/>
        <path d="M112 70.6183c-22.8179 0-41.3817 18.5638-41.3817 41.3814 0 22.8173 18.5638 41.3813 41.3817 41.3813 22.818 0 41.382-18.563 41.382-41.3813 0-22.8179-18.564-41.3814-41.382-41.3814zm0 66.6677c-13.965 0-25.2857-11.321-25.2857-25.286 0-13.965 11.321-25.2857 25.2857-25.2857 13.965 0 25.286 11.3207 25.286 25.2857 0 13.9647-11.3213 25.286-25.286 25.286zm41.462-56.4411c5.476 0 9.916-4.4395 9.916-9.9159 0-5.4764-4.44-9.9159-9.916-9.9159s-9.916 4.4395-9.916 9.9159c0 5.4764 4.44 9.9159 9.916 9.9159z"/>
      </g>
      <g transform="translate(32 32)">
        <mask id="c" fill="#fff">
          <path d="M112.335 0H47.6649C21.3823 0 0 21.3823 0 47.6649v64.6701C0 138.618 21.3823 160 47.6649 160h64.6701C138.618 160 160 138.618 160 112.335V47.6649C160 21.3823 138.617 0 112.335 0zm31.569 112.335c0 17.435-14.134 31.569-31.569 31.569H47.6649c-17.4349 0-31.5689-14.134-31.5689-31.569V47.6649c0-17.4352 14.134-31.5689 31.5689-31.5689h64.6701c17.435 0 31.569 14.1337 31.569 31.5689v64.6701z"/>
          <path d="M80 38.6183c-22.8179 0-41.3817 18.5638-41.3817 41.3814 0 22.8173 18.5638 41.3813 41.3817 41.3813 22.818 0 41.382-18.563 41.382-41.3813 0-22.8179-18.564-41.3814-41.382-41.3814zm0 66.6677c-13.965 0-25.2857-11.321-25.2857-25.286 0-13.965 11.321-25.2857 25.2857-25.2857 13.965 0 25.286 11.3207 25.286 25.2857 0 13.9647-11.3213 25.286-25.286 25.286zm41.462-56.4411c5.476 0 9.916-4.4395 9.916-9.9159 0-5.4764-4.44-9.9159-9.916-9.9159s-9.916 4.4395-9.916 9.9159c0 5.4764 4.44 9.9159 9.916 9.9159z"/>
        </mask>
        <g mask="url(#c)">
          <path fill="#fff" d="M160 47.6649h1-1zM112.335-1H47.6649v2h64.6701v-2zM47.6649-1C20.8301-1-1 20.8301-1 47.6649h2C1 21.9346 21.9346 1 47.6649 1v-2zM-1 47.6649v64.6701h2V47.6649h-2zm0 64.6701C-1 139.17 20.8301 161 47.6649 161v-2C21.9346 159 1 138.065 1 112.335h-2zM47.6649 161h64.6701v-2H47.6649v2zm64.6701 0C139.17 161 161 139.17 161 112.335h-2c0 25.73-20.935 46.665-46.665 46.665v2zM161 112.335V47.6649h-2v64.6701h2zm0-64.6701C161 20.8301 139.17-1 112.335-1v2C138.065 1 159 21.9346 159 47.6649h2zm-18.096 64.6701c0 16.883-13.686 30.569-30.569 30.569v2c17.987 0 32.569-14.582 32.569-32.569h-2zm-30.569 30.569H47.6649v2h64.6701v-2zm-64.6701 0c-16.8826 0-30.5689-13.686-30.5689-30.569h-2c0 17.987 14.5817 32.569 32.5689 32.569v-2zM17.096 112.335V47.6649h-2v64.6701h2zm0-64.6701c0-16.8829 13.6863-30.5689 30.5689-30.5689v-2c-17.9872 0-32.5689 14.5814-32.5689 32.5689h2zM47.6649 17.096h64.6701v-2H47.6649v2zm64.6701 0c16.883 0 30.569 13.686 30.569 30.5689h2c0-17.9875-14.582-32.5689-32.569-32.5689v2zm30.569 30.5689v64.6701h2V47.6649h-2zM80 37.6183c-23.3702 0-42.3817 19.0115-42.3817 42.3814h2c0-22.2653 18.1161-40.3814 40.3817-40.3814v-2zM37.6183 79.9997c0 23.3703 19.0115 42.3813 42.3817 42.3813v-2c-22.2656 0-40.3817-18.116-40.3817-40.3813h-2zM80 122.381c23.37 0 42.382-19.011 42.382-42.3813h-2c0 22.2653-18.116 40.3813-40.382 40.3813v2zm42.382-42.3813c0-23.3702-19.012-42.3814-42.382-42.3814v2c22.266 0 40.382 18.1158 40.382 40.3814h2zM80 104.286c-13.4128 0-24.2857-10.8733-24.2857-24.286h-2c0 14.5173 11.7684 26.286 26.2857 26.286v-2zM55.7143 80c0-13.4127 10.8732-24.2857 24.2857-24.2857v-2c-14.517 0-26.2857 11.7684-26.2857 26.2857h2zM80 55.7143c13.4127 0 24.286 10.873 24.286 24.2857h2c0-14.5173-11.7687-26.2857-26.286-26.2857v2zM104.286 80c0 13.4124-10.8736 24.286-24.286 24.286v2c14.517 0 26.286-11.769 26.286-26.286h-2zm17.176-30.1551c6.029 0 10.916-4.8872 10.916-10.9159h-2c0 4.9241-3.992 8.9159-8.916 8.9159v2zm10.916-10.9159c0-6.0287-4.887-10.9159-10.916-10.9159v2c4.924 0 8.916 3.9918 8.916 8.9159h2zm-10.916-10.9159c-6.029 0-10.916 4.8872-10.916 10.9159h2c0-4.9241 3.992-8.9159 8.916-8.9159v-2zM110.546 38.929c0 6.0287 4.887 10.9159 10.916 10.9159v-2c-4.924 0-8.916-3.9918-8.916-8.9159h-2z"/>
        </g>
      </g>
    </g>
  </g>
</svg>
